<svg width="30" height="30" viewBox="0 0 30 30" fill="none" xmlns="http://www.w3.org/2000/svg">
<path d="M15 7.5C15.825 7.5 16.5 8.175 16.5 9V15C16.5 15.825 15.825 16.5 15 16.5C14.175 16.5 13.5 15.825 13.5 15V9C13.5 8.175 14.175 7.5 15 7.5ZM14.985 0C6.705 0 0 6.72 0 15C0 23.28 6.705 30 14.985 30C23.28 30 30 23.28 30 15C30 6.72 23.28 0 14.985 0ZM15 27C8.37 27 3 21.63 3 15C3 8.37 8.37 3 15 3C21.63 3 27 8.37 27 15C27 21.63 21.63 27 15 27ZM16.5 21C16.5 21.8284 15.8284 22.5 15 22.5C14.1716 22.5 13.5 21.8284 13.5 21C13.5 20.1716 14.1716 19.5 15 19.5C15.8284 19.5 16.5 20.1716 16.5 21Z" fill="#29AF55"/>
</svg>
