<svg width="37" height="29" viewBox="0 0 37 29" fill="none" xmlns="http://www.w3.org/2000/svg">
<path fill-rule="evenodd" clip-rule="evenodd" d="M16.8359 7.06934C16.8359 9.00233 15.2689 10.5693 13.3359 10.5693C11.4029 10.5693 9.83594 9.00233 9.83594 7.06934C9.83594 5.13634 11.4029 3.56934 13.3359 3.56934C15.2689 3.56934 16.8359 5.13634 16.8359 7.06934ZM19.8359 7.06934C19.8359 10.6592 16.9258 13.5693 13.3359 13.5693C9.74609 13.5693 6.83594 10.6592 6.83594 7.06934C6.83594 3.47949 9.74609 0.569336 13.3359 0.569336C16.9258 0.569336 19.8359 3.47949 19.8359 7.06934ZM29.9707 10.7324C29.9707 12.3893 28.6276 13.7324 26.9707 13.7324C25.3138 13.7324 23.9707 12.3893 23.9707 10.7324C23.9707 9.07557 25.3138 7.73242 26.9707 7.73242C28.6276 7.73242 29.9707 9.07557 29.9707 10.7324ZM32.4707 10.7324C32.4707 13.77 30.0083 16.2324 26.9707 16.2324C23.9331 16.2324 21.4707 13.77 21.4707 10.7324C21.4707 7.69486 23.9331 5.23242 26.9707 5.23242C30.0083 5.23242 32.4707 7.69486 32.4707 10.7324ZM4.66646 19.0875C7.01637 17.0091 10.1681 15.8677 13.4216 15.8677C16.6752 15.8677 19.8269 17.0091 22.1768 19.0875C22.2256 19.1306 22.2709 19.1762 22.3127 19.224C23.6349 18.6152 25.1 18.2939 26.5923 18.2939C29.079 18.2939 31.4905 19.1861 33.2902 20.8141C35.0949 22.4465 36.1416 24.6947 36.1416 27.0749C36.1416 27.9033 35.47 28.5749 34.6416 28.5749C33.8132 28.5749 33.1416 27.9033 33.1416 27.0749C33.1416 25.593 32.4921 24.1373 31.2778 23.0389C30.0584 21.936 28.3751 21.2939 26.5923 21.2939C24.8094 21.2939 23.1261 21.936 21.9068 23.0389C20.6924 24.1373 20.043 25.593 20.043 27.0749C20.043 27.9033 19.3714 28.5749 18.543 28.5749C17.7145 28.5749 17.043 27.9033 17.043 27.0749C17.043 24.7648 18.0288 22.5791 19.7368 20.9599C18.0184 19.6282 15.7775 18.8677 13.4216 18.8677C10.8529 18.8677 8.42097 19.7718 6.65395 21.3346C4.89291 22.8922 3.94531 24.9623 3.94531 27.0756C3.94531 27.904 3.27374 28.5756 2.44531 28.5756C1.61689 28.5756 0.945312 27.904 0.945312 27.0756C0.945312 24.0395 2.31058 21.1711 4.66646 19.0875Z" fill="#29AF55"/>
</svg>
