<svg width="29" height="30" viewBox="0 0 29 30" fill="none" xmlns="http://www.w3.org/2000/svg">
<path fill-rule="evenodd" clip-rule="evenodd" d="M21.5 6.5625H25.375C27.3687 6.5625 29 7.725 29 9.375V27C29 28.65 27.3687 30 25.375 30H3.625C1.63125 30 0 28.65 0 27V9.375C0 7.725 1.63125 6.5625 3.625 6.5625H7.5C7.5 3.2475 10.4944 0 14.5 0C18.5056 0 21.5 3.2475 21.5 6.5625ZM18.5 6.5625C18.5 3.84375 16.4937 2.34375 14.5 2.34375C12.5063 2.34375 10.5 3.84375 10.5 6.5625H18.5ZM3 22.0593V27.1875H26V9.375H21.5V12C21.5 12.825 20.9344 13.5 19.9375 13.5C18.9406 13.5 18.5 12.825 18.5 12V9.375H10.5V12C10.5 12.825 10.0594 13.5 9.0625 13.5C8.06563 13.5 7.5 12.825 7.5 12V9.375H3V20.0593H25.9999V22.0593H3Z" fill="#29AF55"/>
</svg>
